INCLUDE "constants.asm"

SECTION "audio/songs/oakintro.asm", ROMX

Song_OakIntro:: ; ec685 (3b:4685)
	db 3 << 6 | 0
	dw Song_OakIntro_Ch0
	db 1
	dw Song_OakIntro_Ch1
	db 2
	dw Song_OakIntro_Ch2
	db 3
	dw Song_OakIntro_Ch3

Song_OakIntro_Ch0:: ; ec691 (3b:4691)
	tempo 152
	volume 7, 7
	vibrato 9, 2, 5
	duty 1

Song_OakIntro_branch_ec69b::
	notetype 12, 11, 2
	octave 2
	B_ 4
	octave 3
	G# 6
	F# 2
	E_ 2
	D# 1
	F# 1
	E_ 2
	octave 2
	B_ 2
	octave 3
	E_ 2
	A_ 2
	G# 4
	F# 4
	octave 2
	B_ 4
	octave 3
	G# 6
	F# 2
	E_ 2
	D# 1
	F# 1
	B_ 2
	octave 2
	B_ 2
	octave 3
	E_ 2
	A_ 2
	G# 4
	B_ 4
	notetype 8, 11, 2
	octave 4
	E_ 2
	octave 3
	A_ 2
	octave 4
	E_ 2
	E_ 2
	octave 3
	A_ 2
	octave 4
	E_ 2
	D# 2
	octave 3
	G# 2
	octave 4
	D# 2
	D# 2
	octave 3
	G# 2
	octave 4
	D# 2
	C# 2
	octave 3
	F# 2
	octave 4
	C# 2
	C# 2
	octave 3
	F# 2
	octave 4
	C# 2
	octave 3
	B_ 2
	E_ 2
	B_ 2
	B_ 2
	E_ 2
	G# 2
	F# 2
	G# 2
	A_ 2
	A_ 2
	F# 2
	A_ 2
	F# 2
	G# 2
	A_ 2
	A_ 2
	F# 2
	A_ 2
	G# 2
	E_ 2
	B_ 2
	B_ 2
	E_ 2
	B_ 2
	B_ 2
	E_ 2
	B_ 2
	B_ 2
	E_ 2
	B_ 2
	A_ 2
	B_ 2
	A_ 2
	octave 4
	C# 2
	octave 3
	B_ 2
	octave 4
	C# 2
	D_ 2
	octave 3
	B_ 2
	octave 4
	D_ 2
	F# 2
	E_ 2
	D# 2
	E_ 2
	octave 3
	B_ 2
	octave 4
	E_ 2
	E_ 2
	octave 3
	B_ 2
	octave 4
	E_ 2
	E_ 2
	octave 3
	B_ 2
	octave 4
	E_ 2
	E_ 2
	octave 3
	B_ 2
	octave 4
	E_ 2
	loopchannel 0, Song_OakIntro_branch_ec69b
	endchannel


Song_OakIntro_Ch1:: ; ec729 (3b:4729)
	vibrato 8, 2, 6
	duty 3

Song_OakIntro_branch_ec72e::
	notetype 12, 13, 4
	octave 4
	E_ 6
	octave 3
	B_ 1
	octave 4
	E_ 1
	F# 6
	A_ 2
	G# 3
	E_ 1
	F# 8
	octave 3
	D# 4
	octave 4
	E_ 6
	octave 3
	B_ 1
	octave 4
	E_ 1
	F# 6
	A_ 2
	G# 3
	E_ 1
	B_ 8
	octave 3
	G# 4
	octave 5
	C# 6
	octave 4
	B_ 1
	A_ 1
	B_ 6
	A_ 1
	G# 1
	A_ 6
	G# 1
	F# 1
	G# 4
	F# 2
	E_ 2
	D_ 2
	D_ 1
	E_ 1
	F# 8
	A_ 4
	G# 3
	F# 1
	E_ 8
	F# 2
	E_ 2
	stereopanning 70
	D# 6
	D_ 2
	D_ 1
	E_ 1
	F# 2
	F# 1
	G# 1
	A_ 4
	octave 5
	C# 4
	octave 4
	B_ 3
	A_ 1
	G# 8
	rest 4
	loopchannel 0, Song_OakIntro_branch_ec72e
	endchannel


Song_OakIntro_Ch2:: ; ec779 (3b:4779)
	vibrato 9, 2, 8

Song_OakIntro_branch_ec77c::
	notetype 12, 1, 1
	octave 3
	E_ 2
	rest 2
	octave 2
	B_ 6
	octave 3
	D_ 1
	C# 1
	D_ 2
	D# 2
	E_ 2
	rest 2
	octave 2
	B_ 6
	octave 3
	D_ 1
	C# 1
	octave 2
	A_ 2
	octave 3
	C# 2
	E_ 2
	rest 2
	octave 2
	B_ 6
	octave 3
	D_ 1
	C# 1
	D_ 2
	D# 2
	E_ 2
	rest 2
	octave 2
	B_ 4
	octave 3
	C# 2
	octave 2
	B_ 2
	octave 3
	D_ 2
	F# 2
	E_ 2
	rest 2
	octave 2
	A_ 2
	rest 2
	octave 3
	D# 2
	rest 2
	octave 2
	G# 2
	rest 2
	octave 3
	C# 2
	rest 2
	octave 2
	F# 2
	rest 2
	B_ 2
	rest 2
	E_ 2
	G# 2
	F# 2
	rest 2
	A_ 2
	rest 2
	F# 2
	rest 2
	A_ 2
	rest 2
	G# 2
	rest 2
	B_ 2
	rest 2
	G# 2
	rest 2
	B_ 2
	rest 2
	F# 2
	rest 2
	A_ 2
	rest 2
	octave 3
	C# 2
	rest 2
	octave 2
	A_ 2
	octave 3
	C# 2
	octave 2
	B_ 2
	rest 2
	octave 3
	E_ 2
	rest 2
	G# 2
	rest 2
	E_ 2
	rest 2
	loopchannel 0, Song_OakIntro_branch_ec77c
	endchannel


Song_OakIntro_Ch3:: ; ec7e7 (3b:47e7)
	drumset 0

Song_OakIntro_branch_ec7e9::
	dspeed 12
	snare3 2
	rest 2
	snare3 1
	rest 5
	snare3 1
	snare3 1
	snare3 2
	snare3 2
	snare3 2
	rest 2
	dspeed 8
	snare3 2
	snare3 2
	snare3 2
	snare3 3
	snare3 3
	dspeed 12
	snare3 1
	rest 3
	snare3 2
	rest 2
	snare3 2
	rest 4
	snare3 1
	snare3 1
	snare3 2
	rest 2
	snare3 2
	rest 2
	dspeed 8
	snare3 2
	snare3 2
	snare3 2
	snare3 3
	snare3 3
	snare3 2
	snare3 2
	snare3 2
	snare3 3
	rest 3
	dspeed 12
	snare3 1
	rest 5
	snare3 1
	snare3 1
	snare3 2
	snare3 2
	snare3 2
	rest 2
	dspeed 8
	snare3 2
	snare3 2
	snare3 2
	snare3 3
	rest 3
	dspeed 12
	snare3 1
	rest 3
	snare3 2
	rest 2
	snare3 2
	rest 4
	snare3 1
	snare3 1
	snare3 2
	snare3 2
	snare3 2
	rest 2
	dspeed 8
	snare3 2
	snare3 2
	snare3 2
	snare3 3
	rest 3
	snare3 3
	snare3 3
	snare3 3
	rest 3
	dspeed 12
	snare3 1
	rest 5
	snare3 1
	snare3 1
	snare3 2
	snare3 2
	snare3 2
	rest 2
	dspeed 8
	snare3 2
	snare3 2
	snare3 2
	snare3 3
	rest 3
	snare3 3
	rest 3
	loopchannel 0, Song_OakIntro_branch_ec7e9
	endchannel
; 0xec858